<svg xmlns="http://www.w3.org/2000/svg" width="1200" height="700" viewBox="0 0 1200 700">
  <defs>
    <linearGradient id="bg" x1="0" y1="0" x2="1" y2="1">
      <stop offset="0" stop-color="#fff7ed"/>
      <stop offset="1" stop-color="#f0f9ff"/>
    </linearGradient>
    <filter id="shadow" x="-20%" y="-20%" width="140%" height="140%">
      <feDropShadow dx="0" dy="12" stdDeviation="16" flood-color="#0f172a" flood-opacity="0.12"/>
    </filter>
  </defs>

  <rect width="1200" height="700" fill="url(#bg)"/>
  <rect x="60" y="40" width="1080" height="620" rx="18" fill="#ffffff" filter="url(#shadow)"/>

  <rect x="60" y="40" width="1080" height="70" rx="18" fill="#0f766e"/>
  <text x="95" y="85" font-family="ui-serif, Georgia" font-size="28" fill="#ffffff">RAG Engine</text>

  <rect x="85" y="140" width="1030" height="430" rx="16" fill="#ffffff" stroke="#e2e8f0"/>
  <text x="115" y="180" font-family="ui-sans-serif, system-ui" font-size="18" fill="#0f172a" font-weight="700">Chat</text>

  <rect x="110" y="210" width="980" height="110" rx="14" fill="#f8fafc" stroke="#e2e8f0"/>
  <text x="130" y="248" font-family="ui-sans-serif, system-ui" font-size="14" fill="#0f172a">User: Does this document mention any penalties for late payment?</text>

  <rect x="110" y="335" width="980" height="200" rx="14" fill="#ffffff" stroke="#99f6e4"/>
  <text x="130" y="372" font-family="ui-sans-serif, system-ui" font-size="14" fill="#0f172a">Assistant: Yes. It states a 1.5% monthly late fee on outstanding balances.</text>

  <text x="130" y="412" font-family="ui-sans-serif, system-ui" font-size="13" fill="#0f766e" font-weight="700">Sources</text>
  <rect x="130" y="425" width="940" height="80" rx="12" fill="#f8fafc" stroke="#e2e8f0"/>
  <text x="150" y="460" font-family="ui-sans-serif, system-ui" font-size="13" fill="#0f172a" font-weight="700">terms.pdf · page 4</text>
  <text x="150" y="482" font-family="ui-sans-serif, system-ui" font-size="12" fill="#475569">"Late payments incur a fee of 1.5% per month..."</text>

  <rect x="85" y="585" width="1030" height="55" rx="14" fill="#ffffff" stroke="#e2e8f0"/>
  <text x="110" y="620" font-family="ui-sans-serif, system-ui" font-size="13" fill="#94a3b8">Ask a question...</text>
  <rect x="1005" y="595" width="95" height="35" rx="10" fill="#0f766e"/>
  <text x="1034" y="618" font-family="ui-sans-serif, system-ui" font-size="14" fill="#ffffff" font-weight="700">Ask</text>
</svg>
