<svg xmlns="http://www.w3.org/2000/svg" width="1200" height="700" viewBox="0 0 1200 700">
  <defs>
    <linearGradient id="bg" x1="0" y1="0" x2="1" y2="1">
      <stop offset="0" stop-color="#f0fdfa"/>
      <stop offset="1" stop-color="#ecfeff"/>
    </linearGradient>
    <filter id="shadow" x="-20%" y="-20%" width="140%" height="140%">
      <feDropShadow dx="0" dy="12" stdDeviation="16" flood-color="#0f172a" flood-opacity="0.12"/>
    </filter>
  </defs>

  <rect width="1200" height="700" fill="url(#bg)"/>

  <rect x="60" y="40" width="1080" height="620" rx="18" fill="#ffffff" filter="url(#shadow)"/>

  <rect x="60" y="40" width="1080" height="70" rx="18" fill="#0f766e"/>
  <text x="95" y="85" font-family="ui-serif, Georgia" font-size="28" fill="#ffffff">RAG Engine</text>
  <rect x="250" y="58" width="240" height="34" rx="17" fill="#ffffff" opacity="0.22"/>
  <text x="265" y="81" font-family="ui-sans-serif, system-ui" font-size="14" fill="#ffffff">Session: 8f3c2a1b…</text>

  <rect x="85" y="140" width="330" height="500" rx="16" fill="#f8fafc"/>
  <text x="110" y="180" font-family="ui-sans-serif, system-ui" font-size="18" fill="#0f172a" font-weight="700">Upload</text>
  <rect x="110" y="210" width="280" height="160" rx="14" fill="#ffffff" stroke="#99f6e4" stroke-width="2" stroke-dasharray="10 10"/>
  <text x="150" y="280" font-family="ui-sans-serif, system-ui" font-size="18" fill="#0f766e" font-weight="700">Drop files here</text>
  <text x="140" y="310" font-family="ui-sans-serif, system-ui" font-size="13" fill="#475569">PDF, DOCX, TXT, MD, PNG/JPG</text>

  <text x="110" y="420" font-family="ui-sans-serif, system-ui" font-size="18" fill="#0f172a" font-weight="700">Files</text>
  <rect x="110" y="440" width="280" height="80" rx="12" fill="#ffffff" stroke="#e2e8f0"/>
  <text x="125" y="472" font-family="ui-sans-serif, system-ui" font-size="15" fill="#0f172a" font-weight="700">policy.pdf</text>
  <text x="125" y="495" font-family="ui-sans-serif, system-ui" font-size="12" fill="#64748b">application/pdf · 312 KB</text>

  <rect x="110" y="535" width="280" height="80" rx="12" fill="#ffffff" stroke="#e2e8f0"/>
  <text x="125" y="567" font-family="ui-sans-serif, system-ui" font-size="15" fill="#0f172a" font-weight="700">receipt.jpg</text>
  <text x="125" y="590" font-family="ui-sans-serif, system-ui" font-size="12" fill="#64748b">image/jpeg · 1.2 MB</text>

  <rect x="435" y="140" width="680" height="430" rx="16" fill="#ffffff" stroke="#e2e8f0"/>
  <text x="465" y="180" font-family="ui-sans-serif, system-ui" font-size="18" fill="#0f172a" font-weight="700">Chat</text>
  <rect x="455" y="210" width="640" height="110" rx="14" fill="#f8fafc" stroke="#e2e8f0"/>
  <text x="475" y="245" font-family="ui-sans-serif, system-ui" font-size="14" fill="#0f172a">User: Summarize the refund policy.</text>

  <rect x="455" y="335" width="640" height="165" rx="14" fill="#ffffff" stroke="#99f6e4"/>
  <text x="475" y="370" font-family="ui-sans-serif, system-ui" font-size="14" fill="#0f172a">Assistant: Refunds are available within 30 days...</text>
  <text x="475" y="405" font-family="ui-sans-serif, system-ui" font-size="13" fill="#0f766e" font-weight="700">Sources</text>
  <text x="475" y="430" font-family="ui-sans-serif, system-ui" font-size="12" fill="#475569">policy.pdf · page 2</text>

  <rect x="435" y="585" width="680" height="55" rx="14" fill="#ffffff" stroke="#e2e8f0"/>
  <text x="460" y="620" font-family="ui-sans-serif, system-ui" font-size="13" fill="#94a3b8">Ask a question...</text>
  <rect x="1005" y="595" width="95" height="35" rx="10" fill="#0f766e"/>
  <text x="1034" y="618" font-family="ui-sans-serif, system-ui" font-size="14" fill="#ffffff" font-weight="700">Ask</text>
</svg>
